<svg width="1244" height="582" viewBox="0 0 1244 582" fill="none" xmlns="http://www.w3.org/2000/svg">
<g id="Group 1">
<path id="Vector" opacity="0.2" d="M17.6282 824.279C16.4545 822.586 15.3178 820.899 14.2293 819.186L63.7294 782.322L63.7334 782.319L118.732 741.465L118.733 741.465L674.074 328.752C674.075 328.751 674.075 328.751 674.075 328.751C746.577 274.892 837.59 266.903 914.627 306.822L182.958 853.715L182.948 853.723L179.363 856.385C179.361 856.386 179.359 856.388 179.357 856.389C179.325 856.412 179.289 856.438 179.25 856.467C179.237 856.477 179.2 856.505 179.144 856.549C161.179 868.931 141.581 875.627 122.029 877.079L122.024 877.079C119.359 877.28 116.69 877.381 114.053 877.378L113.768 877.378L113.731 877.383C76.8916 877.32 41.0741 858.795 17.6558 824.319L17.6421 824.299L17.6282 824.279Z" stroke="#949494" stroke-width="9"/>
<path id="Vector_2" opacity="0.2" d="M1058.6 387.236L1088.86 404.195L1088.56 404.422L1094.99 408.012L1154.65 441.361C1097.83 429.189 1037.8 442.238 987.732 479.335C987.626 479.408 987.544 479.469 987.503 479.499L987.438 479.54L987.321 479.628L970.969 491.806L970.966 491.809L969.654 492.787L969.65 492.79L428.7 895.403C355.36 949.991 262.981 957.614 185.269 916.059L874.002 401.277C929.654 359.703 1000.07 354.476 1058.6 387.235C1058.6 387.235 1058.6 387.236 1058.6 387.236Z" stroke="#949494" stroke-width="9"/>
<path id="Vector_3" opacity="0.2" d="M973.559 495.672L989.911 483.493C990.035 483.414 990.115 483.335 990.234 483.266C1056.26 434.295 1139.75 428.043 1209.49 466.873C1209.58 466.902 1209.7 466.957 1209.79 467.021L1334.71 536.847C1334.71 536.847 1101.68 478.092 1039.69 532.878L973.567 495.677L973.559 495.672Z" fill="#949494"/>
<path id="Vector_4" opacity="0.2" d="M1039.68 532.871C1101.67 478.086 1334.7 536.841 1334.7 536.841L1486.37 621.573L1505.68 632.351L1619.5 696.068L1619.41 696.275C1617.9 699.622 1616.23 702.837 1614.49 705.978C1613.76 707.319 1613.03 708.63 1612.27 709.942C1592.16 744.672 1560.59 767.284 1526.35 774.416C1524.13 774.851 1521.91 775.256 1519.69 775.588L1519.66 775.593C1516.94 775.998 1514.17 776.305 1511.41 776.514C1491.08 778.029 1470.27 774.112 1450.72 764.093C1450.69 764.063 1450.66 764.058 1450.63 764.039L1446.77 761.882L1039.67 532.861L1039.68 532.871Z" fill="#949494"/>
</g>
</svg>
